<?xml version="1.0" encoding="utf-8"?>
<!-- Generator: Adobe Illustrator 22.0.1, SVG Export Plug-In . SVG Version: 6.00 Build 0)  -->
<svg version="1.1" xmlns="http://www.w3.org/2000/svg" xmlns:xlink="http://www.w3.org/1999/xlink" x="0px" y="0px"
	 viewBox="0 0 415.7 317.7" style="enable-background:new 0 0 415.7 317.7;" xml:space="preserve">
<style type="text/css">
	.st0{opacity:0.4;fill:#8A8AFF;}
	.st1{fill:#263238;}
	.st2{fill:#8A8AFF;}
	.st3{opacity:0.1;fill:#8A8AFF;}
	.st4{fill:#FFFFFF;}
	.st5{fill:#8A8AFF;stroke:#263238;stroke-width:0.9124;stroke-linecap:round;stroke-linejoin:round;stroke-miterlimit:10;}
	.st6{display:none;}
	
		.st7{display:inline;fill:#FFFFFF;stroke:#263238;stroke-width:0.9124;stroke-linecap:round;stroke-linejoin:round;stroke-miterlimit:10;}
	.st8{display:inline;}
	.st9{fill:#FFFFFF;stroke:#263238;stroke-width:0.9124;stroke-linecap:round;stroke-linejoin:round;stroke-miterlimit:10;}
	.st10{fill:none;stroke:#263238;stroke-width:0.6843;stroke-linecap:round;stroke-linejoin:round;stroke-miterlimit:10;}
	.st11{fill:none;stroke:#FFFFFF;stroke-width:0.6843;stroke-linecap:round;stroke-linejoin:round;stroke-miterlimit:10;}
	.st12{opacity:0.5;clip-path:url(#XMLID_52_);fill:#C6FF00;}
	.st13{opacity:0.5;clip-path:url(#XMLID_52_);}
	.st14{fill:#C6FF00;}
	.st15{opacity:0.5;clip-path:url(#XMLID_53_);}
	.st16{opacity:0.8;fill:#C6FF00;}
	.st17{fill:none;stroke:#263238;stroke-width:0.9124;stroke-linecap:round;stroke-linejoin:round;stroke-miterlimit:10;}
	.st18{opacity:0.5;clip-path:url(#XMLID_58_);fill:#C6FF00;}
	.st19{opacity:0.4;fill:#C6FF00;}
	.st20{opacity:0.5;clip-path:url(#XMLID_59_);}
	.st21{opacity:0.5;clip-path:url(#XMLID_60_);}
	.st22{opacity:0.5;clip-path:url(#XMLID_63_);fill:#C6FF00;}
</style>
<g id="Background">
	<path id="XMLID_117_" class="st0" d="M344.5,45.7c0,0-32.2-43.2-85.8-46.2c-53.5-3-83.3,33.5-105.2,60.8
		c-21.9,27.4-88.2,11.6-128.3,53.5c-40.1,42-20.7,66.3-3,90.6s34.7,28,34.7,48.1c0,20.1,9.7,46.8,48.1,52.9
		c38.3,6.1,77.9-31,105.2-17c27.4,14,73.3,24.9,101.4,17c28.1-7.9,19.6-37.1,50-46.8c30.4-9.7,59.6-40.1,55.4-73
		c-4.3-32.8-28.6-38.9-38.9-70.6C367.6,83.4,353,59.1,344.5,45.7z"/>
</g>
<g id="Shadows">
	<path id="XMLID_10_" class="st1" d="M381.2,312.3c0,1.8-56,3.2-125,3.2s-125-1.4-125-3.2c0-1.8,56-3.2,125-3.2
		S381.2,310.5,381.2,312.3z"/>
</g>
<g id="Speech_bubble">
	<g id="XMLID_124_">
		<g id="XMLID_119_">
			<g>
				<path id="XMLID_121_" class="st2" d="M282.3,74.8H164.8c-3.7,0-6.6-3-6.6-6.6V22.3c0-3.7,3-6.6,6.6-6.6h117.5
					c3.7,0,6.6,3,6.6,6.6v45.9C288.9,71.9,285.9,74.8,282.3,74.8z"/>
				<path id="XMLID_40_" class="st3" d="M282.3,74.8H164.8c-3.7,0-6.6-3-6.6-6.6V22.3c0-3.7,3-6.6,6.6-6.6h117.5
					c3.7,0,6.6,3,6.6,6.6v45.9C288.9,71.9,285.9,74.8,282.3,74.8z"/>
			</g>
			<g>
				<polyline id="XMLID_120_" class="st2" points="158.2,64.4 158.2,85.8 170.1,72.1 				"/>
				<polyline id="XMLID_41_" class="st3" points="158.2,64.4 158.2,85.8 170.1,72.1 				"/>
			</g>
		</g>
		<path id="XMLID_118_" class="st4" d="M258.8,48.1h-84.4c-1.3,0-2.4-1.1-2.4-2.4l0,0c0-1.3,1.1-2.4,2.4-2.4h84.4
			c1.3,0,2.4,1.1,2.4,2.4l0,0C261.1,47.1,260.1,48.1,258.8,48.1z"/>
		<path id="XMLID_123_" class="st4" d="M258.8,59h-84.4c-1.3,0-2.4-1.1-2.4-2.4l0,0c0-1.3,1.1-2.4,2.4-2.4h84.4
			c1.3,0,2.4,1.1,2.4,2.4l0,0C261.1,57.9,260.1,59,258.8,59z"/>
		<circle id="XMLID_122_" class="st4" cx="179.1" cy="28.8" r="8.5"/>
	</g>
	<g id="XMLID_42_">
		<g id="XMLID_46_">
			<g>
				<path id="XMLID_50_" class="st2" d="M282.3,154.9H164.8c-3.7,0-6.6-3-6.6-6.6v-45.9c0-3.7,3-6.6,6.6-6.6h117.5
					c3.7,0,6.6,3,6.6,6.6v45.9C288.9,151.9,285.9,154.9,282.3,154.9z"/>
				<path id="XMLID_49_" class="st3" d="M282.3,154.9H164.8c-3.7,0-6.6-3-6.6-6.6v-45.9c0-3.7,3-6.6,6.6-6.6h117.5
					c3.7,0,6.6,3,6.6,6.6v45.9C288.9,151.9,285.9,154.9,282.3,154.9z"/>
			</g>
			<g>
				<polyline id="XMLID_48_" class="st2" points="158.2,144.5 158.2,165.8 170.1,152.1 				"/>
				<polyline id="XMLID_47_" class="st3" points="158.2,144.5 158.2,165.8 170.1,152.1 				"/>
			</g>
		</g>
		<path id="XMLID_45_" class="st4" d="M258.8,128.2h-84.4c-1.3,0-2.4-1.1-2.4-2.4l0,0c0-1.3,1.1-2.4,2.4-2.4h84.4
			c1.3,0,2.4,1.1,2.4,2.4l0,0C261.1,127.1,260.1,128.2,258.8,128.2z"/>
		<path id="XMLID_44_" class="st4" d="M258.8,139h-84.4c-1.3,0-2.4-1.1-2.4-2.4l0,0c0-1.3,1.1-2.4,2.4-2.4h84.4
			c1.3,0,2.4,1.1,2.4,2.4l0,0C261.1,138,260.1,139,258.8,139z"/>
		<circle id="XMLID_43_" class="st4" cx="179.1" cy="108.9" r="8.5"/>
	</g>
</g>
<g id="Plant">
	<g>
		<g id="XMLID_55_">
			<g id="XMLID_92_">
				<g id="XMLID_94_">
					<path id="XMLID_105_" class="st1" d="M67.4,212.9c-0.1,0-0.5-6.3-0.5-6.7c0.2-4.6,3.4-13.5,8.4-14.8c3.6-1,7,1.7,7.5,5.2
						c0.6,3.6-1.8,7.5-4.2,10C75.9,209.6,67.4,212.9,67.4,212.9z"/>
					<path id="XMLID_104_" class="st1" d="M60.9,188.8c-0.1,0,0.5-6.3,0.5-6.7c0.9-4.5,5.4-12.8,10.6-13.3c3.7-0.4,6.6,2.7,6.6,6.3
						c0,3.7-2.9,7.1-5.6,9.2C69.8,186.8,60.9,188.8,60.9,188.8z"/>
					<path id="XMLID_103_" class="st1" d="M59.2,160.3c-0.1,0,0.5-6.3,0.5-6.7c0.9-4.5,5.4-12.8,10.6-13.3c3.7-0.4,6.6,2.7,6.6,6.3
						c0,3.7-2.9,7.1-5.6,9.2C68.1,158.3,59.2,160.3,59.2,160.3z"/>
					<path id="XMLID_102_" class="st1" d="M56.4,133.4c-0.1,0,0.5-6.3,0.5-6.7c0.9-4.5,5.4-12.8,10.6-13.3c3.7-0.4,6.6,2.7,6.6,6.3
						c0,3.7-2.9,7.1-5.6,9.2C65.3,131.5,56.4,133.4,56.4,133.4z"/>
					<path id="XMLID_101_" class="st1" d="M47.8,111.9c-0.1,0-1.2-6.2-1.2-6.6c-0.3-4.6,1.8-13.8,6.7-15.7c3.5-1.4,7.1,0.9,8.1,4.3
						c1,3.5-0.9,7.6-3,10.4C55.9,107.6,47.8,111.9,47.8,111.9z"/>
					<path id="XMLID_100_" class="st1" d="M64.8,213c0.1,0-2.6-5.7-2.9-6c-2.5-3.9-9.6-10.1-14.6-8.8c-3.6,0.9-5.2,4.9-4,8.2
						c1.3,3.4,5.2,5.7,8.5,6.7C55.8,214.3,64.8,213,64.8,213z"/>
					<path id="XMLID_99_" class="st1" d="M59.5,185.5c0.1,0-3.5-5.2-3.7-5.5c-3-3.5-11-8.5-15.8-6.5c-3.4,1.5-4.5,5.6-2.7,8.7
						c1.8,3.2,6,4.8,9.4,5.3C50.8,188.2,59.5,185.5,59.5,185.5z"/>
					<path id="XMLID_98_" class="st1" d="M58,158.6c0.1,0-3.5-5.2-3.7-5.5c-3-3.5-11-8.5-15.8-6.5c-3.4,1.5-4.5,5.6-2.7,8.7
						c1.8,3.2,6,4.8,9.4,5.3C49.3,161.3,58,158.6,58,158.6z"/>
					<path id="XMLID_97_" class="st1" d="M55.4,134c0.1,0-3.5-5.2-3.7-5.5c-3-3.5-11-8.5-15.8-6.5c-3.4,1.5-4.5,5.6-2.7,8.7
						c1.8,3.2,6,4.8,9.4,5.3C46.7,136.6,55.4,134,55.4,134z"/>
					<path id="XMLID_96_" class="st1" d="M47.9,112.7c0.1,0-4-4.8-4.3-5.1c-3.4-3.2-11.8-7.2-16.4-4.7c-3.3,1.8-3.8,6-1.7,9
						c2.1,3,6.5,4.1,10,4.2C39.4,116.3,47.8,112.7,47.9,112.7z"/>
					<path id="XMLID_95_" class="st1" d="M36.9,95.1c0.1,0-1.3-6.1-1.5-6.5c-1.6-4.4-7.2-11.9-12.4-11.7c-3.7,0.1-6.2,3.6-5.7,7.2
						c0.5,3.6,3.9,6.6,6.9,8.3C27.8,94.4,36.9,95.1,36.9,95.1z"/>
				</g>
				<path id="XMLID_93_" class="st1" d="M76.2,245.3c0,0-1.1-2.4-2.8-6.7c-1.7-4.3-4-10.5-6.5-18c-1.2-3.8-2.5-7.9-3.7-12.2
					c-0.6-2.2-1.2-4.4-1.8-6.8c-0.3-1.2-0.5-2.3-0.8-3.5c-0.3-1.2-0.4-2.4-0.7-3.7c-0.8-4.9-1.3-10-1.5-15.2
					c-0.3-5.2-0.4-10.4-0.5-15.7c-0.1-5.2-0.3-10.5-0.7-15.6c-0.4-5.1-1.1-10.1-2.2-14.9c-1.1-4.8-2.7-9.2-4.5-13.4
					c-1.7-4.1-3.7-7.9-5.7-11.3c-1.9-3.4-3.9-6.4-5.7-9.1c-1.8-2.6-3.4-4.9-4.8-6.7c-2.8-3.7-4.5-5.6-4.5-5.6s1.8,1.9,4.6,5.5
					c1.4,1.8,3.1,4,5,6.6c1.8,2.6,3.9,5.6,5.9,9c2,3.4,4.1,7.1,6,11.3c1.9,4.1,3.6,8.6,4.8,13.4c1.2,4.8,2,9.9,2.5,15
					c0.5,5.2,0.8,10.4,1,15.7c0.2,5.2,0.4,10.5,0.8,15.6c0.4,5.1,0.9,10.2,1.8,14.9c0.2,1.2,0.4,2.3,0.7,3.5
					c0.3,1.2,0.6,2.3,0.8,3.5c0.6,2.2,1.2,4.5,1.9,6.6c1.3,4.3,2.6,8.3,3.9,12c2.6,7.4,5,13.5,6.8,17.7c1.8,4.2,2.9,6.6,2.9,6.6
					c0.4,0.9,0,2-0.9,2.4C77.7,246.7,76.6,246.3,76.2,245.3C76.2,245.4,76.2,245.4,76.2,245.3L76.2,245.3z"/>
			</g>
		</g>
		<g id="XMLID_73_">
			<g id="XMLID_84_">
				<g id="XMLID_86_">
					<path id="XMLID_111_" class="st1" d="M99.7,206.6c-0.1,0,1.3-6.1,1.4-6.5c1.5-4.4,7.1-11.9,12.3-11.8c3.7,0.1,6.2,3.6,5.7,7.1
						c-0.5,3.6-3.8,6.7-6.8,8.4C108.8,205.8,99.7,206.6,99.7,206.6z"/>
					<path id="XMLID_110_" class="st1" d="M100.3,181.5c-0.1,0,2.2-5.9,2.4-6.2c2.2-4.1,8.8-10.7,13.9-9.8c3.7,0.7,5.6,4.5,4.6,7.9
						c-1,3.5-4.8,6-8,7.3C109.4,182.2,100.3,181.5,100.3,181.5z"/>
					<path id="XMLID_109_" class="st1" d="M106.8,153.7c-0.1,0,2.2-5.9,2.4-6.2c2.2-4.1,8.8-10.7,13.9-9.8c3.7,0.7,5.6,4.5,4.6,7.9
						c-1,3.5-4.8,6-8,7.3C115.9,154.4,106.8,153.7,106.8,153.7z"/>
					<path id="XMLID_108_" class="st1" d="M111.7,127.2c-0.1,0,2.2-5.9,2.4-6.2c2.2-4.1,8.8-10.7,13.9-9.8c3.7,0.7,5.6,4.5,4.6,7.9
						c-1,3.5-4.8,6-8,7.3C120.8,127.8,111.7,127.2,111.7,127.2z"/>
					<path id="XMLID_107_" class="st1" d="M109.6,104.1c-0.1,0,0.6-6.3,0.7-6.6c1-4.5,5.7-12.7,10.9-13.1c3.7-0.3,6.6,2.8,6.5,6.4
						c0,3.7-3,7.1-5.8,9.1C118.6,102.3,109.6,104.1,109.6,104.1z"/>
					<path id="XMLID_106_" class="st1" d="M97.2,205.9c0.1,0-0.9-6.2-1-6.6c-1.3-4.5-6.3-12.4-11.5-12.6c-3.7-0.1-6.4,3.2-6.2,6.7
						c0.2,3.7,3.4,6.9,6.3,8.8C88.2,204.5,97.2,205.9,97.2,205.9z"/>
					<path id="XMLID_91_" class="st1" d="M100,178.1c0.1,0-1.8-6-2-6.4c-1.9-4.2-8.1-11.3-13.3-10.7c-3.7,0.4-5.9,4.1-5.1,7.6
						c0.8,3.6,4.4,6.3,7.5,7.8C90.8,178.1,99.9,178.1,100,178.1z"/>
					<path id="XMLID_90_" class="st1" d="M106.1,151.9c0.1,0-1.8-6-2-6.4c-1.9-4.2-8.1-11.3-13.3-10.7c-3.7,0.4-5.9,4.1-5.1,7.6
						c0.8,3.6,4.4,6.3,7.5,7.8C97,151.9,106.1,151.9,106.1,151.9z"/>
					<path id="XMLID_89_" class="st1" d="M110.7,127.4c0.1,0-1.8-6-2-6.4c-1.9-4.2-8.1-11.3-13.3-10.7c-3.7,0.4-5.9,4.1-5.1,7.6
						c0.8,3.6,4.4,6.3,7.5,7.8C101.6,127.5,110.7,127.4,110.7,127.4z"/>
					<path id="XMLID_88_" class="st1" d="M109.4,104.9c0.1,0-2.5-5.8-2.7-6.1c-2.4-4-9.3-10.3-14.4-9.2c-3.7,0.8-5.4,4.7-4.2,8.1
						c1.2,3.5,5.1,5.8,8.3,6.9C100.4,105.9,109.4,104.9,109.4,104.9z"/>
					<path id="XMLID_87_" class="st1" d="M104,85c0.1,0,0.5-6.3,0.4-6.7c-0.3-4.6-3.5-13.4-8.5-14.7c-3.6-0.9-6.9,1.7-7.5,5.3
						c-0.6,3.6,1.8,7.5,4.2,10C95.5,81.7,104,85,104,85z"/>
				</g>
				<path id="XMLID_85_" class="st1" d="M98.9,240.1c0,0-0.3-2.6-0.7-7.2c-0.4-4.6-0.9-11.2-1.1-19.1c-0.1-4-0.1-8.2-0.1-12.8
					c0-2.3,0.1-4.6,0.2-7c0.1-1.2,0.2-2.4,0.3-3.6c0.1-1.2,0.3-2.5,0.4-3.7c0.6-5,1.6-10,2.9-15c1.2-5,2.6-10.1,4-15.2
					c1.4-5.1,2.7-10.1,3.8-15.2c1.1-5,1.9-10,2.2-14.9c0.3-4.9,0-9.6-0.5-14.1c-0.5-4.5-1.3-8.6-2.2-12.5c-0.9-3.8-1.9-7.3-2.8-10.3
					c-1-3-1.9-5.7-2.7-7.8c-1.6-4.3-2.7-6.7-2.7-6.7s1.2,2.4,2.9,6.6c0.9,2.1,1.8,4.7,2.9,7.8c1,3,2.1,6.5,3.1,10.3
					c1,3.8,1.9,8,2.5,12.5c0.6,4.5,1,9.3,0.8,14.2c-0.2,5-0.9,10-1.9,15.1c-1,5.1-2.2,10.2-3.5,15.3c-1.3,5.1-2.6,10.2-3.7,15.2
					c-1.1,5-2,10-2.5,14.8c-0.1,1.2-0.3,2.4-0.3,3.6c-0.1,1.2-0.1,2.4-0.2,3.6c0,2.3-0.1,4.6,0,6.9c0,4.5,0.1,8.7,0.3,12.6
					c0.4,7.8,1,14.3,1.5,18.9c0.5,4.5,0.9,7.1,0.9,7.1c0.1,1-0.5,1.9-1.5,2.1C100,241.9,99.1,241.2,98.9,240.1
					C98.9,240.2,98.9,240.2,98.9,240.1L98.9,240.1z"/>
			</g>
		</g>
		<g id="XMLID_72_">
			<polygon id="XMLID_114_" class="st1" points="110.5,306.2 68.2,306.2 56.3,236.9 122.4,236.9 			"/>
		</g>
	</g>
</g>
<g id="Character">
	<g>
		<circle id="XMLID_54_" class="st5" cx="185.1" cy="220.7" r="92.1"/>
		<g>
			<path class="st1" d="M160.7,281.3c-8.1-3.1-15.1-7.4-21-12.9c-5.9-5.6-10.5-12.6-13.9-21c-3.4-8.4-5-17.7-5-27.9
				c0-8.5,1.4-16.5,4.2-23.9c2.8-7.4,6.6-13.8,11.5-19.1c4.8-5.3,10.4-9.9,16.7-13.7c6.3-3.8,12.9-6.7,20-8.6
				c7-1.9,14.1-2.8,21.2-2.8c6.1,0,12,0.7,17.6,2.1c5.6,1.4,10.9,3.6,15.8,6.6c4.9,3,9.2,6.6,12.9,10.9c3.7,4.3,6.6,9.5,8.7,15.7
				c2.1,6.1,3.1,12.9,3.1,20.2c0,6.9-1.3,13.5-3.8,19.9c-2.5,6.4-5.7,11.8-9.6,16.2c-3.9,4.4-8.2,7.9-13,10.5
				c-4.7,2.6-9.4,3.9-13.9,3.9c-3.4,0-6.5-1-9.3-3.1c-2.8-2-4.2-4.9-4.4-8.7c-5.7,8-13.4,12.1-23.2,12.1c-7.9,0-14.2-2.7-19-8.1
				c-4.7-5.4-7.1-12.1-7.1-20c0-5.9,1-11.8,3.1-17.7c2.1-5.9,4.9-11.2,8.4-16c3.6-4.8,8-8.7,13.4-11.7c5.4-3,11.1-4.5,17.2-4.5
				c4.4,0,8.4,1,12,2.9c3.6,2,6.4,4.8,8.3,8.5l0.8-2.5c1-3.3,3.3-4.9,6.8-4.9c1.6,0,3,0.5,4.2,1.4c1.2,0.9,1.7,2.2,1.7,3.9
				c0,0.7-0.1,1.4-0.4,2.1l-12.4,41.3c-1.4,4.7-2.1,8-2.1,9.7c0,3,1.5,4.5,4.5,4.5c4,0,7.9-1.8,11.7-5.5c3.8-3.6,6.9-8.5,9.3-14.5
				c2.4-6,3.6-12.3,3.6-18.7c0-6.1-0.8-11.6-2.4-16.7c-1.6-5.1-3.8-9.4-6.6-12.9c-2.8-3.5-6.1-6.5-10-8.9c-3.8-2.4-8-4.2-12.3-5.3
				c-4.4-1.1-8.9-1.7-13.7-1.7c-5.8,0-11.6,0.8-17.4,2.4c-5.7,1.6-11.2,4.1-16.4,7.4c-5.2,3.3-9.8,7.2-13.8,11.7
				c-4,4.5-7.2,9.9-9.5,16.2c-2.4,6.3-3.5,13-3.5,20.2c0,8.9,1.5,16.8,4.4,23.9c2.9,7.1,6.9,12.8,11.9,17.2
				c5,4.4,10.8,7.8,17.3,10.1c6.5,2.3,13.4,3.5,20.8,3.5c7.7,0,15.2-1.1,22.4-3.4c0.6-0.2,1.4-0.3,2.3-0.3c1.6,0,2.9,0.5,3.9,1.6
				c1,1.1,1.5,2.3,1.5,3.7c0,2.6-1.2,4.2-3.6,4.9c-9.6,2.9-18.9,4.3-27.9,4.3C177.5,285.9,168.8,284.3,160.7,281.3z M192.3,241.6
				c3.9-2.9,6.6-6.6,8-11l8-28.1l-0.5-1.1c-0.3-0.7-1-1.6-1.8-2.6c-0.9-1-1.9-2-3.1-3.1c-1.2-1-2.8-1.9-4.8-2.6
				c-2-0.7-4.2-1.1-6.4-1.1c-2.6,0-5.1,0.5-7.5,1.6c-2.4,1-4.6,2.5-6.5,4.2c-1.9,1.8-3.7,3.8-5.3,6.2c-1.6,2.4-2.9,4.9-4,7.5
				c-1.1,2.6-1.9,5.3-2.5,8.1c-0.6,2.8-0.9,5.4-0.9,8c0,1.9,0.1,3.6,0.3,5.2c0.2,1.6,0.5,3.1,1,4.5c0.5,1.4,1.1,2.6,1.8,3.7
				c0.7,1.1,1.6,2,2.6,2.8c1,0.8,2.2,1.3,3.6,1.7c1.4,0.4,3,0.6,4.7,0.6C184,246,188.4,244.5,192.3,241.6z"/>
		</g>
	</g>
	<g class="st6">
		<path id="XMLID_7_" class="st7" d="M310.3,143.3c0,0-3,5.6-3.4,6.4c-0.5,0.8-2,5-1.6,6c0.5,0.9,0.9,1.6,1.9,1.7
			c0.9,0.2,1.7,1.9,3.3,2.2c1.6,0.3,3,0.3,3,0.3s0.8,0.6,1.7,0.3c0.9-0.3,1.7-0.8,2.4-3.5c0.6-2.7,0.3-4.1,0.3-4.1l-0.3-5.4
			L310.3,143.3z"/>
		<g class="st8">
			<path id="XMLID_12_" class="st9" d="M327.6,293.5c0,0-4.3,7-4.3,8.6s5.9,4.8,8.4,5.9c2.5,1.1,7,2,10.6,2.5c3.6,0.6,11.2,2,9-0.8
				c-2.2-2.8-15.7-10.4-16.2-11.2c-0.6-0.8-2.3-2.3-2.3-2.3L327.6,293.5z"/>
			<path id="XMLID_3_" class="st9" d="M334.3,304.5l1.5,2.2c1.6,2.4,3.8,4.5,6.4,5.9c4,2.2,10.2,4.6,15.5,3.1
				c8.8-2.4-13.4-15.8-13.4-15.8S336.5,305.4,334.3,304.5z"/>
			<path id="XMLID_23_" class="st10" d="M336.9,305.6c0,0,3.1,5.4,10.4,7.5c7.3,2.1,9.3,1.6,10.9-0.5"/>
			<path id="XMLID_35_" class="st10" d="M323.9,300.9c0,0,8,5.7,11.9,5.8"/>
		</g>
		<g class="st8">
			<path id="XMLID_1_" class="st1" d="M306.6,145.2c0,0,7.1,11.8,8.6,14.5c1.5,2.7,20.7,24.6,28.3,43.5
				c7.6,18.9,14.9,35.9,14.6,41.4c-0.3,5.5-25.2,51.7-25.2,51.7l-5.2-2.7c0,0,7.9-43.5,7-48.1c-0.9-4.6-28.9-49.9-28.9-49.9
				s-13.1-9.1-18.6-19.8"/>
			<path id="XMLID_2_" class="st1" d="M307.6,174.6c0,0-4,8.5-4,9.7c0,1.2,22.2,66.6,28.6,81.5c6.4,14.9,10.6,29.2,10.6,29.2
				s2.4,3,0.6,6.1c-1.8,3-9.1,5.2-10.6,2.4c-1.5-2.7-16.4-17-22.8-31.3c-6.4-14.3-15.5-38.6-20.7-47.8c-5.2-9.1-11.6-20.4-18.2-36.2
				c-6.7-15.8-13.6-32.9-13.6-32.9s12.8,1.5,26.8-3c14-4.6,20-13.3,20-13.3s3.6,9.1,4.5,10.9"/>
			<polyline id="XMLID_11_" class="st11" points="309.6,200 302.6,181.8 310.5,175 			"/>
			<path id="XMLID_14_" class="st11" d="M317.2,181.2l-14.6,0.6c0,0,0-5.6-2.5-9.2c-2.5-3.6-3.1-4.2-3.4-5.3c-0.3-1.1,0-3.1,0-3.1"
				/>
			<path id="XMLID_15_" class="st11" d="M335.7,242.3c0,0,9.2,4.8,15.7,4.2"/>
			<path id="XMLID_16_" class="st11" d="M337.4,245.1c0,0,6.4,5.3,12,6.7"/>
			<path id="XMLID_20_" class="st11" d="M300.4,161c-0.3,0.8,1.1,4.8,2,6.7c0.8,2,3.6,3.4,3.6,4.8s-3.6,3.9-3.6,3.9"/>
			<path id="XMLID_17_" class="st11" d="M276.3,168.3c0,0-1.7,5.6-4.5,7.8c-2.8,2.2-2.8,2.2-2.8,2.2"/>
			<path id="XMLID_19_" class="st11" d="M265.1,167.2c0,0,4.8,15.7,11.8,27.7c7,12,23,38.1,23.5,43.1c0.6,5,0,10.1,3.9,12.6
				c3.9,2.5,3.6,3.6,4.2,7c0.6,3.4,2.2,7,2.2,7s11.2,19,15.1,26c3.9,7,9.6,13.9,9.6,13.9"/>
		</g>
		<g class="st8">
			<g>
				<path id="XMLID_13_" class="st9" d="M257.5,155.4c0,0,0.6,7.1,3.4,9.3c2.8,2.2,11.2,4.2,22.7,2c11.5-2.2,24.1-12,25.2-15.4
					c1.1-3.4-4.6-12.2-4.6-12.2s-6.6,9.4-25.1,12.5C260.6,154.6,257.5,155.4,257.5,155.4z"/>
				<g>
					<g>
						<defs>
							<path id="XMLID_36_" d="M331.3,86.7c-4.6-3-40.1-30.7-43.5-31.9c-3.3-1.2-10,0-10,0s-20.6,2.5-24.9,4.3
								c-0.4,0.2-9.7,5.5-10,5.8c-3.3,2.7-18,9.5-21.9,18c-4.5,9.6,34.8,67.7,36.6,72.5c1.8,4.9,11.4,6.1,20.2,4.8
								c8.8-1.2,16.6-3,22.9-10.3c1.1-1.2,2.1-3.1,2.9-4.7c0.9-1.9,1.1-4,0.7-6.1c-2.3-9.5-8.1-36.9-11.9-55
								c6.4,4.1,19.7,12.5,27.4,15.5c10.3,4,18.2,1.2,18.2-2.1C338,94,335.9,89.8,331.3,86.7z"/>
						</defs>
						<use xlink:href="#XMLID_36_"  style="overflow:visible;fill:#FFFFFF;"/>
						<clipPath id="XMLID_52_">
							<use xlink:href="#XMLID_36_"  style="overflow:visible;"/>
						</clipPath>
						<path class="st12" d="M291.9,76.8c0,0,4.9,1.8,8.5,1.8c3.6,0,1.5,1.5,0,2.1c-1.5,0.6,9.7-0.9,9.4,0.9
							c-0.3,1.8-8.2,5.5-8.2,5.5s6.7,4.3,17.3,5.5c10.6,1.2,4,7.6,4,7.6S305.8,94,292.3,84L291.9,76.8z"/>
						<g class="st13">
							<path class="st14" d="M238,97.5c0,0-2.4,4-1.2,4.3c1.2,0.3,13.7-4.9,9.4-0.6c-4.3,4.3-9.4,4.3-7.3,5.5
								c2.1,1.2,7.6,1.2,5.8,2.4c-1.8,1.2,1.8,6.7,10.9,17.6c9.1,10.9,13.1,18.6,23.1,23.7s16.7,5.2,10.6,6.7
								c-6.1,1.5-12.5,2.4-12.8,5.2c0,0,0.3,2.1-3.3,3.6c-3.6,1.5-5.8,1.2-8.5,0c-2.7-1.2-3.6-1.2-4.3-2.7c-0.6-1.5-3.1-7.8-3.1-7.8
								l-4.4-9.3l-1.4-2l-1.2-0.9l-21.3-36.5L238,97.5z"/>
						</g>
						
							<use xlink:href="#XMLID_36_"  style="overflow:visible;fill:none;stroke:#263238;stroke-width:0.9124;stroke-linecap:round;stroke-linejoin:round;stroke-miterlimit:10;"/>
					</g>
					<g>
						<defs>
							<path id="XMLID_62_" d="M225.7,76.6c0,0-3.7,4-5.1,5.8c-7.6,9.8-31.9,41.2-32.1,43.7c-0.3,2.4,0.9,4.2,6.8,6.5
								c5.9,2.3,45.6-37.5,45.6-37.5"/>
						</defs>
						<use xlink:href="#XMLID_62_"  style="overflow:visible;fill:#FFFFFF;"/>
						<clipPath id="XMLID_53_">
							<use xlink:href="#XMLID_62_"  style="overflow:visible;"/>
						</clipPath>
						<g class="st15">
							<path class="st16" d="M228,75.9l-29.2,40.8c0,0,3,3.3,6.7,6.7c3.6,3.3,10,5.5,5.2,5.2c-4.9-0.3-14-4-14-4s-2.7,2.1,0.6,4.3
								c3.3,2.1,4,0.6,13.7,5.5c9.7,4.9,25.3,8,25.3,8l-1.3,2.6l-41.4-10.6c0,0-6-3-5.1-8c0.9-5,14.8-21,14.8-21l20-26.2
								C223.3,79.1,225.2,76.3,228,75.9z"/>
						</g>
						
							<use xlink:href="#XMLID_62_"  style="overflow:visible;fill:none;stroke:#263238;stroke-width:0.9124;stroke-linecap:round;stroke-linejoin:round;stroke-miterlimit:10;"/>
					</g>
					<g>
						<path id="XMLID_21_" class="st10" d="M306,74.8L292.3,84c2-0.3,11.5-3.6,11.5-3.6"/>
						<line id="XMLID_22_" class="st10" x1="305.4" y1="80.1" x2="308.5" y2="79.5"/>
						<path id="XMLID_24_" class="st17" d="M203.8,116.5c0,0-2.8-0.2-6.2,1.2"/>
						<path id="XMLID_29_" class="st10" d="M233.7,102.7c0,0,7.7-2.4,9.7-3.9"/>
						<path id="XMLID_31_" class="st10" d="M245.3,98c0,0,1.3-1.1,1.7-1.1"/>
						<line id="XMLID_37_" class="st9" x1="292.3" y1="84" x2="291" y2="71.2"/>
					</g>
				</g>
				<g>
					<defs>
						<path id="XMLID_61_" d="M188.5,126.3c0,0-1.8,6.8,9.6,9.6c5.4,1.3,41.1,10,41.1,10s3.2-6.8,1.4-6.8
							c-1.8,0-34.7-21.9-34.7-21.9"/>
					</defs>
					<use xlink:href="#XMLID_61_"  style="overflow:visible;fill:#FFFFFF;"/>
					<clipPath id="XMLID_58_">
						<use xlink:href="#XMLID_61_"  style="overflow:visible;"/>
					</clipPath>
					<path class="st18" d="M228,75.9l-29.2,40.8c0,0,3,3.3,6.7,6.7c3.6,3.3,10,5.5,5.2,5.2c-4.9-0.3-14-4-14-4s-2.7,2.1,0.6,4.3
						c3.3,2.1,4,0.6,13.7,5.5c9.7,4.9,25.3,8,25.3,8l-1.1,2.6l-41.5-10.6c0,0-7.9-3.7-5.1-8c3.1-4.9,14.8-21,14.8-21l20.4-26
						C223.7,79.3,224.3,76.2,228,75.9z"/>
					
						<use xlink:href="#XMLID_61_"  style="overflow:visible;fill:none;stroke:#263238;stroke-width:0.9124;stroke-linecap:round;stroke-linejoin:round;stroke-miterlimit:10;"/>
				</g>
				<path id="XMLID_65_" class="st9" d="M240.5,139c0,0,11.7,5.5,12.6,7c0.9,1.5,3,9.4,3,11.9s-0.3,2.4-1.8,2.4
					c-1.5,0-5.5-5.8-6.4-7c-0.9-1.2-3-1.2-5.8-3c-2.7-1.8-3-4.4-3-4.4L240.5,139z"/>
				<line id="XMLID_32_" class="st17" x1="235.5" y1="144.7" x2="237.3" y2="139.1"/>
			</g>
			<path class="st19" d="M262.9,84.9c0,0-18.8-10.7-25.5-9.7c-6.7,1-12.5,1.9-12.5,1.9l12.5-8.7C243.6,71.3,252.6,77.9,262.9,84.9z"
				/>
			<path id="XMLID_9_" class="st9" d="M324.3,96.5c0,0-3,10.3-4.3,16.4c-1.2,6.1-9.7,30.4-9.7,30.4l7.3,4.6c0,0,16.1-33.5,19.2-40.8
				c3-7.3,2.1-12.8-0.9-15.8"/>
			<path id="XMLID_33_" class="st1" d="M311.7,139.8c0.5,0,7.5,3.8,7.5,3.8"/>
		</g>
		<g class="st8">
			<g>
				<defs>
					<path id="XMLID_25_" d="M263.7,84.9c-1.7-0.3-10.6-6.2-16.8-10.9c-6.2-4.8-9.5-5.6-9.5-5.6l-4.2,2.8c0,0-1.1-3.1,0.6-6.2
						c1.7-3.1,7.6-6.2,13.4-8.4c5.9-2.2,12.6-4.2,16.8-4.2c4.2,0,5.3,1.7,5.3,3.9c0,2.2,0,9.2-1.4,14.6
						C266.5,76.2,263.7,84.9,263.7,84.9z"/>
				</defs>
				<use xlink:href="#XMLID_25_"  style="overflow:visible;fill:#FFFFFF;"/>
				<clipPath id="XMLID_59_">
					<use xlink:href="#XMLID_25_"  style="overflow:visible;"/>
				</clipPath>
				<g class="st20">
					<path class="st14" d="M261.1,55.7c0,0-2.6,7.8-5.2,10.1c-2.6,2.3-6.5,4.4-6.5,4.4s-1.6-5.4-5.4-5.4s-9.8,2.6-9.8,2.6
						s0-2.1,4.9-4.7c4.9-2.6,4.9-2.6,4.9-2.6l11.4-4.4H261.1z"/>
				</g>
				
					<use xlink:href="#XMLID_25_"  style="overflow:visible;fill:none;stroke:#263238;stroke-width:0.9124;stroke-linecap:round;stroke-linejoin:round;stroke-miterlimit:10;"/>
			</g>
			<g>
				<defs>
					<path id="XMLID_8_" d="M238.8,49.3c0,0,4.9,4.9,6.7,12.8c1.8,7.9,13.3,17.2,16,17.2s2.5-13.6,1.6-17.5
						c-0.9-4-4.6-14.6-4.6-14.6S244,40.2,238.8,49.3z"/>
				</defs>
				<use xlink:href="#XMLID_8_"  style="overflow:visible;fill:#FFFFFF;"/>
				<clipPath id="XMLID_60_">
					<use xlink:href="#XMLID_8_"  style="overflow:visible;"/>
				</clipPath>
				<g class="st21">
					<path class="st14" d="M261.1,55.7c0,0-2.6,7.8-5.2,10.1c-2.6,2.3-6.5,4.4-6.5,4.4s-1.6-5.4-5.4-5.4s-9.8,2.6-9.8,2.6
						s0-2.1,4.9-4.7c4.9-2.6,4.9-2.6,4.9-2.6l11.4-4.4H261.1z"/>
				</g>
				
					<use xlink:href="#XMLID_8_"  style="overflow:visible;fill:none;stroke:#263238;stroke-width:0.9124;stroke-linecap:round;stroke-linejoin:round;stroke-miterlimit:10;"/>
			</g>
		</g>
		<g class="st8">
			<g>
				<defs>
					<path id="XMLID_4_" d="M229.2,34.7c0,0,3.3,9.2,7.9,16.8c4.6,7.6,13.5,11.9,18.5,9.9c5-2,8.3-8.4,7-18.3
						c-0.3-2.2-2.2-3.1-2.8-5c-2.2-7-4.4-13.7-5.2-16.3c-1-3.3-8.9-6.6-17.2-4.3C229.2,19.8,227.9,26.7,229.2,34.7z"/>
				</defs>
				<use xlink:href="#XMLID_4_"  style="overflow:visible;fill:#FFFFFF;"/>
				<clipPath id="XMLID_63_">
					<use xlink:href="#XMLID_4_"  style="overflow:visible;"/>
				</clipPath>
				<path class="st22" d="M256.6,28.6c0,0-3,2.2-9.7,0.9c-6.7-1.3-11.4-1-11.1,0.8c0.3,1.8,0.8,4.1,0.8,4.1s-8.1-7-0.8-8.9
					c5.3-1.4,8.3,0.7,9.6,1C246.7,26.8,256.6,28.6,256.6,28.6z"/>
				
					<use xlink:href="#XMLID_4_"  style="overflow:visible;fill:none;stroke:#263238;stroke-width:0.9124;stroke-linecap:round;stroke-linejoin:round;stroke-miterlimit:10;"/>
			</g>
			<path id="XMLID_6_" class="st9" d="M235.1,45.6c0,0-5.3-2.3-5.6,0c-0.3,2.3,2,4,4.3,5c2.3,1,3.6-0.3,3.6-0.3"/>
			<g>
				<path id="XMLID_26_" class="st9" d="M256.7,32.5c0,0-5.9-1.4-3.4,6.4c0.5,1.6,3.9,3.4,3.9,3.4s-0.3,2.5-1.7,2.8"/>
				<path id="XMLID_27_" class="st9" d="M252.5,50.7c0,0-4.2,0.8-5.9-1.1"/>
				<path id="XMLID_18_" class="st9" d="M246.4,37.5c0,0-3.1-1.1-4.8,0.3c-1.7,1.4-2,2.5-2,2.5"/>
				<path id="XMLID_28_" class="st1" d="M246.3,42.3c0.4,0.9,0.3,1.8-0.2,2.1c-0.5,0.2-1.2-0.4-1.6-1.3c-0.4-0.9-0.3-1.8,0.2-2.1
					C245.2,40.8,245.9,41.4,246.3,42.3z"/>
				<path id="XMLID_30_" class="st1" d="M256.3,37.4c0.4,0.9,0.3,1.8-0.2,2.1c-0.5,0.2-1.2-0.4-1.6-1.3c-0.4-0.9-0.3-1.8,0.2-2.1
					C255.2,35.9,255.9,36.5,256.3,37.4z"/>
			</g>
		</g>
		<g class="st8">
			<path id="XMLID_5_" class="st1" d="M233.7,46.9c0,0,3.3-2.4,2.7-4.6c-0.6-2.1-1.8-2.1-0.6-3.3c1.2-1.2,2.1-1.8,1.8-3.6
				c-0.3-1.8-5.2-4.9-3.6-6.7c1.5-1.8,0.9-4,13.4-0.9c12.5,3,20.4-1.8,16.7-6.4c-3.6-4.6-6.7-5.2-6.7-5.2s7-3,1.2-6.1
				c-5.8-3-18.9-3-26.2,2.7c-7.3,5.8-5.8,10.6-5.8,10.6s-4,0.6-4.3,6.7C222.1,36.2,233.7,46.9,233.7,46.9z"/>
			<path id="XMLID_38_" class="st11" d="M233.6,26.1c0,0,1-3.1,6.2-3.1c5.2,0,9.8,4.4,16.8,2.8c7-1.5,3.1-5.7,3.1-5.7"/>
			<path id="XMLID_34_" class="st11" d="M231.3,25.3c0,0,0.5-6.4,6.2-7.8c5.7-1.4,13.2,1.4,15.2,0.6"/>
			<path id="XMLID_39_" class="st11" d="M228.4,25.6c0,0-3.1,0-3.4,4.1c-0.3,4.1,2.3,5.9,2.3,5.9"/>
			<path id="XMLID_56_" class="st11" d="M231.3,28.2c0,0-3.4,1.3-1.8,4.6"/>
			<line id="XMLID_57_" class="st11" x1="228.9" y1="36.4" x2="230.2" y2="38.2"/>
		</g>
	</g>
</g>
</svg>
