<svg id="Layer_3" data-name="Layer 3" xmlns="http://www.w3.org/2000/svg" xmlns:xlink="http://www.w3.org/1999/xlink" viewBox="0 0 1665.41 1060.63"><defs><style>.cls-1,.cls-37{fill:none;}.cls-2,.cls-27,.cls-39{fill:#424663;}.cls-11,.cls-13,.cls-15,.cls-17,.cls-19,.cls-2,.cls-20,.cls-24,.cls-29,.cls-3,.cls-31,.cls-34,.cls-38,.cls-39,.cls-40,.cls-41,.cls-43,.cls-44,.cls-45,.cls-46,.cls-5,.cls-7,.cls-8{fill-rule:evenodd;}.cls-2{opacity:0.15;}.cls-3{opacity:0.5;fill:url(#linear-gradient);}.cls-3,.cls-44{isolation:isolate;}.cls-4,.cls-8{fill:#b6cbd0;}.cls-28,.cls-5{fill:#f09b9b;}.cls-6{clip-path:url(#clip-path);}.cls-7{fill:#e16074;}.cls-9{clip-path:url(#clip-path-2);}.cls-10{opacity:0.34;}.cls-11,.cls-13,.cls-20,.cls-45{fill:#014e6a;}.cls-12{clip-path:url(#clip-path-3);}.cls-13{fill-opacity:0.26;}.cls-14{opacity:0.38;}.cls-15{fill:#2b4a5e;}.cls-16{clip-path:url(#clip-path-4);}.cls-17,.cls-25{fill:#e06e7e;}.cls-18{clip-path:url(#clip-path-5);}.cls-19{fill:#dfb1a7;}.cls-20{fill-opacity:0.27;}.cls-21{clip-path:url(#clip-path-6);}.cls-22{clip-path:url(#clip-path-7);}.cls-23{opacity:0.28;}.cls-24{fill:#fff;}.cls-26{fill:#53718b;}.cls-29,.cls-36{fill:#c9a5b5;}.cls-30,.cls-31{fill:#6a3a4a;}.cls-32{clip-path:url(#clip-path-8);}.cls-33,.cls-34{fill:#4c2243;}.cls-35{clip-path:url(#clip-path-9);}.cls-37{stroke:#b6cbd0;stroke-linecap:round;stroke-linejoin:round;stroke-width:0.84px;}.cls-38{opacity:0.6;fill:url(#linear-gradient-2);}.cls-40,.cls-44{fill:#5e607d;}.cls-41{fill:url(#linear-gradient-3);}.cls-42{fill:#ffe9eb;}.cls-43{fill:#ebc6be;}.cls-44{opacity:0.2;}.cls-45{opacity:0.19;}.cls-46{fill:url(#linear-gradient-4);}</style><linearGradient id="linear-gradient" x1="1193.56" y1="272.47" x2="803.65" y2="274.72" gradientTransform="matrix(1, 0, 0, -1, -170.23, 1253.11)" gradientUnits="userSpaceOnUse"><stop offset="0" stop-color="#542d4c" stop-opacity="0"/><stop offset="0.99" stop-color="#542d4c"/></linearGradient><clipPath id="clip-path" transform="translate(-170.23 -252.86)"><path class="cls-1" d="M947,508.53l1.43,59.78L847.39,574s29.18,104.62,148,103.19c0,0,125.25-22.06,143-108.17l-111.73-4.27,1.42-111C1027.44,453.73,994,507.82,947,508.53Z"/></clipPath><clipPath id="clip-path-2" transform="translate(-170.23 -252.86)"><path class="cls-1" d="M923.54,566.17s6.4,57.65,66.18,59.07,59.78-67.61,59.78-67.61L1147,564S1122.81,692.85,973.36,695.7,826,626,826,626l-6.4-62.62Z"/></clipPath><clipPath id="clip-path-3" transform="translate(-170.23 -252.86)"><path class="cls-1" d="M844.85,762l-3.56,322.38,336.62-2.84-15-350.85-74-130.95s-64,66.9-118.14,49.11S884,604,876.16,608.23C867.62,611.08,847,730.64,844.85,762Z"/></clipPath><clipPath id="clip-path-4" transform="translate(-170.23 -252.86)"><path class="cls-1" d="M761.58,998.22s-8.54,10-17.08,20.64-18.5,22.06-22.77,27c0,0-19.22-10.67,15.66-45.54l-36.3,22.06s7.12,22.77-10.67,38.43l-7.83-41.28L694,1006.76l-19.21,15s10.67,34.87-8.54,47.68l-8.54-49.11,12.81-12.09-12.81,12.09s9.25,32.74-10.67,39.86l-4.27-47.68,7.11-7.12-7.11,7.12s2.84,29.17-9.26,36.29l-4.27-36.29s22.78-25.62,43.41-34.88A366.86,366.86,0,0,1,716,960.5S757.31,961.93,761.58,998.22Z"/></clipPath><clipPath id="clip-path-5" transform="translate(-170.23 -252.86)"><path class="cls-1" d="M676.18,960.5,763,925.63s-5-224.88-5-253.35c-.71-28.47,8.54-95.36,93.94-98.92,86.12-3.56,10.68,121.69,12.81,192.15s.72,162.26.72,182.9-.72,45.54-45.55,65.47c-44.84,20.64-73.3,29.18-73.3,29.18S803.57,970.47,676.18,960.5Z"/></clipPath><clipPath id="clip-path-6" transform="translate(-170.23 -252.86)"><path class="cls-1" d="M945.47,888.89s-34.87-7-53.38-11.4S839.43,867,839.43,867s-32,33.32-37.72,35.95l2.85,48.22s11.38-4.38,10-39.45L831.6,892.4l-17.08,19.29,3.56,43.83s12.1-9.64,10-35.94l11.39-14-11.39,14,3.56,36.82s7.83-7.89,7.12-32.44l11.38-14-7.82,15.78L855.09,952s6.4-7.9-2.14-26.31a29.17,29.17,0,0,1,8.54-7.89c5.69-3.5,18.5,18.41,42,13.15,23.48-4.38,30.6,1.76,41.28,3.51C956.14,938,945.47,888.89,945.47,888.89Z"/></clipPath><clipPath id="clip-path-7" transform="translate(-170.23 -252.86)"><path class="cls-1" d="M919.57,858.74s29.89,52.66,5.7,96.07c0,0,207.8,52,240.54,61.2,32,9.26,73.3-1.42,71.88-121-1.43-120.27-5-229.15-5-229.15s5.7-92.52-89-96.79c-95.37-4.27-50.53,11.39-50.53,11.39s-37,77.57,37.72,167.95l-3.56,136.64Z"/></clipPath><clipPath id="clip-path-8" transform="translate(-170.23 -252.86)"><path class="cls-1" d="M931,344.92s-26.33-2.14-23.49,66.89c2.85,68.32,15.66,98.92,54.8,101.06,39.14,1.42,64-26.33,69.75-61.21,0,0,29.17-1.42,30.6-34.16,0,0-.72-24.19-27.76-12.8,0,0,12.1-36.3-6.4-53.38C1007.82,334.24,948.75,332.11,931,344.92Z"/></clipPath><clipPath id="clip-path-9" transform="translate(-170.23 -252.86)"><path class="cls-1" d="M955.16,407.54s1.42,29.18.71,36.3c0,7.11-6.41,9.25-14.24,10-8.54,0-16.36-4.27-7.82-13.52s12.81-15.66,14.23-23.49,1.42-12.09,4.27-12.81C955.87,403.27,955.16,406.12,955.16,407.54Z"/></clipPath><linearGradient id="linear-gradient-2" x1="564.1" y1="167.42" x2="564.1" y2="350.21" gradientTransform="matrix(1, 0, 0, -1, 0, 1505.96)" xlink:href="#linear-gradient"/><linearGradient id="linear-gradient-3" x1="327.18" y1="131.37" x2="585.8" y2="131.37" gradientTransform="matrix(1.03, 0, 0, -1.72, -37.04, 1315.46)" gradientUnits="userSpaceOnUse"><stop offset="0" stop-color="#f1ddd7"/><stop offset="0.24" stop-color="#ebdbd6"/><stop offset="0.55" stop-color="#dad6d4"/><stop offset="0.91" stop-color="#beced1"/><stop offset="1" stop-color="#b6cbd0"/></linearGradient><linearGradient id="linear-gradient-4" x1="1024.19" y1="491.37" x2="1766.45" y2="491.37" gradientTransform="matrix(1, 0, 0, -1, 0, 1505.96)" gradientUnits="userSpaceOnUse"><stop offset="0" stop-color="#5e607d"/><stop offset="0.16" stop-color="#636682"/><stop offset="0.38" stop-color="#71778f"/><stop offset="0.62" stop-color="#8893a4"/><stop offset="0.89" stop-color="#a7b9c2"/><stop offset="1" stop-color="#b6cbd0"/></linearGradient></defs><title>Graphic Designer Illustration</title><path class="cls-2" d="M1204.44,993.55l1.74,89-316.94,1.11.14-51.18.62-55.83a103.13,103.13,0,0,1-21,12.77c-42.36,20.7-69.31,29.24-69.31,29.24s-94.86,10-66.46-82.57l82-34.86s-4.72-224.93-4.72-253.4c-.56-24.59,5.9-77.78,59.65-94.1l115.83-12-.14-7.15h.35l-.42-1.46-1-49.16c-11.25-5.42-19-15.77-24.23-31.67s-7.78-37.36-8.89-64.93c-.07-2.78-.14-5.35-.14-7.85-.07-.55,0-1.11-.07-1.66,0-1.6.07-3.2.07-4.73v-1.87a17.27,17.27,0,0,1-3.82.42c-12.29,0-22.15-10.49-22.15-23.48a24,24,0,0,1,4-13.47,22.9,22.9,0,0,1-10.13-19.24c0-12.63,9.65-22.77,21.45-22.77a20.88,20.88,0,0,1,9.31,2.22,22.9,22.9,0,0,1-1.18-7.22c0-13.75,10.55-24.93,23.54-24.93A22.75,22.75,0,0,1,989.79,271c3.13-10.49,12.43-18.12,23.68-18.12a24.26,24.26,0,0,1,15.28,5.41,26.15,26.15,0,0,1,8.68,13.75,21,21,0,0,1,16.32-7.78c.83,0,1.74.07,2.5.14.07,0,.07,0,.14.07,10.69,1.25,18.89,10.63,18.89,21.88a22.35,22.35,0,0,1-6.53,15.83c-.14.07-.21.14-.35.21a.77.77,0,0,0,.14.28s24.79-3.61,26.88,25.55c1,13.82-4.1,26.11-9.93,35.28v.07c0,1-.07,1.81-.07,2.43-.42,3.47-2.5,4-5.56,5.63l-.07.07q-2.08,2.6-3.75,4.37a18.41,18.41,0,0,1,9.38-.07s10.34,2.08,11.94,12.57a22.05,22.05,0,0,1,.77,4.51c-1.32,32.71-28.89,34.17-28.89,34.17a98.09,98.09,0,0,1-3.68,15l-1.6-1v98l112.71,5.62c87.36,5.49,82.08,96.6,82.08,96.6s3.33,108.89,4.65,229.16C1264.65,978.69,1232.92,997.79,1204.44,993.55Z" transform="translate(-170.23 -252.86)"/><polygon class="cls-3" points="609.15 1029.32 672.49 1038.57 929.4 927.55 858.94 919.72 609.15 1029.32"/><path class="cls-4" d="M173.13,1089.38a2.91,2.91,0,0,1,0-5.81l1659.6-5.69h0a2.91,2.91,0,0,1,0,5.81l-1659.6,5.69Z" transform="translate(-170.23 -252.86)"/><path class="cls-5" d="M947,508.53l1.43,59.78L847.39,574s29.18,104.62,148,103.19c0,0,125.25-22.06,143-108.17l-111.73-4.27,1.42-111C1027.44,453.73,994,507.82,947,508.53Z" transform="translate(-170.23 -252.86)"/><g class="cls-6"><path class="cls-7" d="M948.45,569s69.74-29.18,80.42-109.6c0,0-20.64,9.26-47,19.93-26.34,10-36.3,11.39-38.43,24.2C940.62,517.07,936.35,548.38,948.45,569Z" transform="translate(-170.23 -252.86)"/><path class="cls-8" d="M923.54,566.17s6.4,57.65,66.18,59.07,59.78-67.61,59.78-67.61L1147,564S1122.81,692.85,973.36,695.7,826,626,826,626l-6.4-62.62Z" transform="translate(-170.23 -252.86)"/><g class="cls-9"><g id="Слой11"><g class="cls-10"><path class="cls-11" d="M891.82,563.4s7.11,81.84,99.63,81.84c85.4,0,89.67-97.5,89.67-97.5Z" transform="translate(-170.23 -252.86)"/></g></g></g></g><path class="cls-8" d="M1177.91,1081.5l-336.62,2.84.28-27.47L844.85,762c2.13-31.31,22.77-150.87,31.31-153.72C884,604,916.73,631,970.81,648.8S1089,599.7,1089,599.7l74,130.95,9.82,229.86v.22Z" transform="translate(-170.23 -252.86)"/><g class="cls-12"><g id="Слой5"><path class="cls-13" d="M921,859.45s146.6,15.65,187.16,10.67c0,0,14.24-16.37,22.06-108.17,0,0,5.7,110.31,5,126-.72,16.37-193.58-6.4-193.58-6.4Z" transform="translate(-170.23 -252.86)"/></g><g id="Слой6" class="cls-14"><path class="cls-11" d="M1145.17,1003.2l4.27,87.54h37.72l-9.25-84Z" transform="translate(-170.23 -252.86)"/></g></g><g id="Слой9"><path class="cls-15" d="M920.28,858.74s-10-2.85-7.82,15.65,5.69,52.67,6.4,66.19,2.85,18.5,12.1,10c8.54-8.54,11.39-54.8,9.25-63.34C938.79,879.37,920.28,858.74,920.28,858.74Z" transform="translate(-170.23 -252.86)"/></g><g id="Слой10"><path class="cls-15" d="M676.89,960.5s-34.15,58.36,17.8,74c54.79,16.37,62.62,12.81,64.76-22.06s-23.49-54.8-39.86-56.94C703.23,954.1,681.88,957.66,676.89,960.5Z" transform="translate(-170.23 -252.86)"/></g><path class="cls-5" d="M761.58,998.22s-8.54,10-17.08,20.64-18.5,22.06-22.77,27c0,0-19.22-10.67,15.66-45.54l-36.3,22.06s7.12,22.77-10.67,38.43l-7.83-41.28L694,1006.76l-19.21,15s10.67,34.87-8.54,47.68l-8.54-49.11,12.81-12.09-12.81,12.09s9.25,32.74-10.67,39.86l-4.27-47.68,7.11-7.12-7.11,7.12s2.84,29.17-9.26,36.29l-4.27-36.29s22.78-25.62,43.41-34.88A366.86,366.86,0,0,1,716,960.5S757.31,961.93,761.58,998.22Z" transform="translate(-170.23 -252.86)"/><g class="cls-16"><path class="cls-17" d="M691.13,967.62s32.73,3.56,49.81,19.22c0,0-38.43,27.75-44.83,31.31-6.41,2.85,9.25,13.52-5.69,42,0,0,18.5,1.42,34.87-9.25,16.37-11.39,19.92-19.22,28.46-28.47,9.26-9.25,17.8-8.54,18.51-20.64s-18.51-37-38.43-42.7c-19.93-5-20.64-4.27-27.05-1.42C701.8,959.79,691.13,967.62,691.13,967.62Z" transform="translate(-170.23 -252.86)"/><path class="cls-17" d="M666.93,1070.81s15-12.1,5.69-46.26c0,0-6.4-2.13,7.12-10.67s21.35-11.39,21.35-11.39-24.2,17.79-22.77,22.78,9.25,19.21,2.84,33.44C674.05,1072.24,666.93,1070.81,666.93,1070.81Z" transform="translate(-170.23 -252.86)"/><path class="cls-17" d="M647.72,1060.14s13.52-2.85,7.11-40.57c0,0,12.1-10.67,18.51-16.37,0,0-15.66,18.51-15,18.51,0,0,4.27,17.08,0,32-3.56,14.24-10,12.1-10,12.1Z" transform="translate(-170.23 -252.86)"/><path class="cls-17" d="M634.91,1049.46s8.54-14.23,5.69-36.29l14.23-10.68-10.67,11.39s2.13,25.62-2.14,33.45S634.91,1049.46,634.91,1049.46Z" transform="translate(-170.23 -252.86)"/></g><path class="cls-8" d="M676.18,960.5,763,925.63s-5-224.88-5-253.35c-.71-28.47,8.54-95.36,93.94-98.92,86.12-3.56,10.68,121.69,12.81,192.15s.72,162.26.72,182.9-.72,45.54-45.55,65.47c-44.84,20.64-73.3,29.18-73.3,29.18S803.57,970.47,676.18,960.5Z" transform="translate(-170.23 -252.86)"/><g class="cls-18"><path class="cls-19" d="M825.63,1019.57s0-56.22,42.7-84c0,0,12.1,30.6-7.83,54.79C840.58,1013.88,825.63,1019.57,825.63,1019.57Z" transform="translate(-170.23 -252.86)"/><g id="Слой4"><path class="cls-20" d="M753.75,992s66.9-30.82,84.69-42.48c17.08-11.67,25.62-107.47,27.76-192.45,0,0,12.1,134.13,7.83,188.28s-67.61,96.64-95.37,105.8-45.54,8.33-44.12-5.83C735.25,1032,753.75,992,753.75,992Z" transform="translate(-170.23 -252.86)"/></g></g><path class="cls-5" d="M945.47,888.89s-34.87-7-53.38-11.4S839.43,867,839.43,867s-32,33.32-37.72,35.95l2.85,48.22s11.38-4.38,10-39.45L831.6,892.4l-17.08,19.29,3.56,43.83s12.1-9.64,10-35.94l11.39-14-11.39,14,3.56,36.82s7.83-7.89,7.12-32.44l11.38-14-7.82,15.78L855.09,952s6.4-7.9-2.14-26.31a29.17,29.17,0,0,1,8.54-7.89c5.69-3.5,18.5,18.41,42,13.15,23.48-4.38,30.6,1.76,41.28,3.51C956.14,938,945.47,888.89,945.47,888.89Z" transform="translate(-170.23 -252.86)"/><g class="cls-21"><path class="cls-17" d="M804.28,952.68s11.39-12.81,7.12-39.86L832,893.61l-16.37,19.92s2.85,27.05-3.56,36.3C805.71,958.37,804.28,952.68,804.28,952.68Z" transform="translate(-170.23 -252.86)"/><path class="cls-17" d="M818.52,955.52a52.07,52.07,0,0,0,6.4-37L842,902.86l-13.52,17.79S830.61,952,818.52,955.52Z" transform="translate(-170.23 -252.86)"/><path class="cls-17" d="M832.75,957s6.4-19.93,4.27-32.74l15.66-13.52S841.29,922.07,842,927.77C841.29,932.75,842.71,945.56,832.75,957Z" transform="translate(-170.23 -252.86)"/><path class="cls-17" d="M856.23,952.68A35,35,0,0,0,852,927.06s3.56-7.83,10.68-12.1c6.4-4.27,19.21,9.25,41.28,7.83,22.77-1.43,25.62-6.41,24.9-16.37S926,881.51,926,881.51h11.38s17.8,14.23,19.22,20.64,9.25,36.29-5,38.43c-13.52,2.13-57.65-1.43-67.61-.71-9.25,1.42-5.69,8.54-13.52,13.52C863.35,958.37,856.23,952.68,856.23,952.68Z" transform="translate(-170.23 -252.86)"/></g><path class="cls-8" d="M919.57,858.74s29.89,52.66,5.7,96.07c0,0,207.8,52,240.54,61.2,32,9.26,73.3-1.42,71.88-121-1.43-120.27-5-229.15-5-229.15s5.7-92.52-89-96.79c-95.37-4.27-50.53,11.39-50.53,11.39s-37,77.57,37.72,167.95l-3.56,136.64Z" transform="translate(-170.23 -252.86)"/><g class="cls-22"><path class="cls-5" d="M1141.61,1021s19.22-74.73,105.33-86.83c0,0,7.11,51.24-27.76,77.57C1184.31,1037.36,1141.61,1021,1141.61,1021Z" transform="translate(-170.23 -252.86)"/><g id="Слой3" class="cls-23"><path class="cls-11" d="M928.82,924.21s227,61.2,239.83,64.76,58.36,11.39,71.17-102.48c0,0,16.37-23.48,13.52,32-2.84,56.22,2.14,132.37-70.45,121-72.59-10.68-261.89-69-261.89-69Z" transform="translate(-170.23 -252.86)"/></g></g><polygon class="cls-24" points="529.44 459.28 318.08 459.28 318.08 566.03 463.26 566.03 503.11 606.59 504.53 566.03 529.44 566.03 529.44 459.28"/><ellipse class="cls-25" cx="377.86" cy="511.94" rx="14.23" ry="14.94"/><ellipse class="cls-25" cx="424.11" cy="512.94" rx="14.23" ry="14.94"/><ellipse class="cls-25" cx="470.27" cy="513.56" rx="14.23" ry="14.94"/><ellipse class="cls-26" cx="481" cy="320.19" rx="34.87" ry="34.16"/><circle class="cls-4" cx="471.22" cy="897.17" r="12.81" transform="translate(-477.69 -4.23) rotate(-22.5)"/><ellipse class="cls-4" cx="1274.11" cy="112.19" rx="39.85" ry="38.43"/><circle class="cls-27" cx="1203.72" cy="331.69" r="20.64"/><circle class="cls-28" cx="1348.92" cy="962.59" r="20.64"/><ellipse class="cls-28" cx="340.63" cy="105.87" rx="16.17" ry="16.41"/><polygon class="cls-29" points="950.03 86.37 950.03 225.85 911.6 261.44 950.03 262.86 950.03 295.6 1087.38 295.6 1087.38 86.37 950.03 86.37"/><path class="cls-24" d="M1190.72,421.77s-16.37-24.19-29.18-7.82c-15,17.79,29.89,45.54,29.89,45.54s49.1-33.45,23.48-49.1C1214.91,409.68,1204.24,404,1190.72,421.77Z" transform="translate(-170.23 -252.86)"/><circle class="cls-30" cx="732.98" cy="119.81" r="23.48"/><circle class="cls-30" cx="725.86" cy="87.08" r="22.77"/><circle class="cls-30" cx="759.31" cy="59.32" r="24.91"/><ellipse class="cls-30" cx="802.72" cy="50.07" rx="26.33" ry="25.62"/><path class="cls-31" d="M1038.42,310.76a21.6,21.6,0,0,1-7,15.87,1,1,0,0,1-.29.22,22.46,22.46,0,0,1-14.87,5.9,1.79,1.79,0,0,1-.64.08,22.63,22.63,0,0,1-17.15-7.62h-.08a24.14,24.14,0,0,1-4.27-7.12,20.92,20.92,0,0,1-1.28-7.33,21.14,21.14,0,0,1,.64-5.19,21.82,21.82,0,0,1,4.84-9.11,22.74,22.74,0,0,1,17.3-7.76c.85,0,1.78.07,2.63.15.07,0,.07,0,.14.07A22.22,22.22,0,0,1,1038.42,310.76Z" transform="translate(-170.23 -252.86)"/><path class="cls-31" d="M1053.37,402.71c-2.07,4.77-3.56,7.69-3.56,7.69a25.84,25.84,0,0,0-8-1.5,23.51,23.51,0,0,0-12.59,2.92,1.47,1.47,0,0,1-.78.21c-2.78.5-6.34-4.69-10.68-12.31-7.83-14-18.29-36.08-31.46-45.76-5.62-4.13-11.67-6-18.28-4a81.14,81.14,0,0,0-29,15.44c-4.84,3.84-8.75,7.54-12.45,10.32-3.92,2.92-7.62,4.84-11.89,4.84a10.63,10.63,0,0,1-5.91-1.5c-5-2.84-8.61-9.32-10.46-16.44a38.2,38.2,0,0,1-1.14-12.52,18.84,18.84,0,0,1,2.57-8.68c3.48-5.63,6.47-10,10.39-13.81a37.77,37.77,0,0,1,3-2.78,59.57,59.57,0,0,1,13-7.61c7.83-3.49,14.59-6.41,21.42-8.33a50.55,50.55,0,0,1,6.55-1.63,68.12,68.12,0,0,1,11.17-1.43c8.25-.42,19.07-.57,28.39-.21,1.93.14,3.85.21,5.56.36a64.27,64.27,0,0,1,9.46,1.28c8.61,2,20.92,17.5,22.63,19.64a.77.77,0,0,0,.14.28s26.19-3.63,28.47,25.55c1.07,13.81-4.41,26.12-10.53,35.3v.07c-.07,1-.15,1.78-.15,2.42-.42,3.42-2.63,4-5.83,5.62l-.07.07a74.39,74.39,0,0,1-8.26,8.47C1043.47,401.07,1049.31,401.07,1053.37,402.71Z" transform="translate(-170.23 -252.86)"/><path class="cls-5" d="M1062.62,417.51c-1.43,32.74-30.6,34.16-30.6,34.16-5.7,34.88-30.61,62.63-69.75,61.21-39.14-2.14-51.95-32.74-54.8-101.06-.21-5.91-.28-11.24-.14-16.08.21-6.34.71-11.89,1.35-16.73,1.85-12.24,5.06-20.07,8.47-25.12v-.07c3.21-4.63,6.55-6.83,9.11-7.9a11.45,11.45,0,0,1,4.7-1c17.79-12.81,76.86-10.67,97.5,6.41,15.3,14.09,9.68,41.28,7.33,50.31-.5,1.64-.79,2.71-.86,3,8.54-3.56,14.38-3.56,18.44-1.92,5.83,2.28,8,7.83,8.75,11.46A23.21,23.21,0,0,1,1062.62,417.51Z" transform="translate(-170.23 -252.86)"/><g class="cls-32"><g id="Слой7"><path class="cls-17" d="M908.19,379.08s-6.41-29.89,17.79-32.74c0,0-8.54,48.39,74.72,7.12,0,0,25.62-3.56,24.2,21.35s19.21-33.45-12.1-36.3c-30.6-2.13-39.14-.71-59.07-2.13-19.92-.72-25.62-15.66-37.72,5.69C904.63,363.42,907.47,373.38,908.19,379.08Z" transform="translate(-170.23 -252.86)"/></g><g id="Слой8"><path class="cls-17" d="M1027.75,424.62s-2.85-29.18,21.35-24.19c0,0,14.94,2.84,12.8,18.5C1062.62,418.22,1053.36,395.44,1027.75,424.62Z" transform="translate(-170.23 -252.86)"/></g></g><ellipse class="cls-33" cx="762.87" cy="152.55" rx="6.4" ry="7.12"/><ellipse class="cls-33" cx="801.42" cy="152.88" rx="6.4" ry="7.12"/><path class="cls-34" d="M969.39,381.21a62,62,0,0,1,12.1,9.25c5.69,5.7,7.83,5.7,9.25,3.56,2.13-2.85-2.14-8.54-12.1-13.52C969.39,375.52,965.83,379.08,969.39,381.21Z" transform="translate(-170.23 -252.86)"/><path class="cls-34" d="M940.44,382.16A52,52,0,0,0,929,388.57c-5.6,4.21-7.35,3.89-8.17,1.77-1.28-2.86,3.16-7.29,12.15-10.22S944.41,380.27,940.44,382.16Z" transform="translate(-170.23 -252.86)"/><path class="cls-31" d="M1049.24,388v.07c-.07,1-.15,1.78-.15,2.42-.42,3.42-2.63,4-5.83,5.62l-.07.07a22.89,22.89,0,0,0-7.4,5.48l-.22.22c-2.2,2.42-4.62,6.26-7.18,10.17-5.56,8.62-11.6,17.51-17,12.6-6.27-5.69-1.07-6.4,6.33-24.91a168.94,168.94,0,0,0,5.77-17.08c10-35.58-27.76-34.87-27.76-34.87s-3.7,2.78-9.47,6.19c-10.31,6.05-27.39,14.16-42.48,12.31a28.54,28.54,0,0,1-4.84-.92c-14.23-3.84-13.52-15.16-12.67-19.43a17.1,17.1,0,0,1,.43-1.71s18.72-11,38-16.93a92.31,92.31,0,0,1,12.53-3,50.1,50.1,0,0,1,11.17-.57,42.24,42.24,0,0,1,10,1.49h.08a81.39,81.39,0,0,1,17.72,7.54h.07c5.76,3.21,11.74,6.91,18.57,10.75C1054.08,355,1050.23,378.66,1049.24,388Z" transform="translate(-170.23 -252.86)"/><path class="cls-17" d="M955.16,407.54s1.42,29.18.71,36.3c0,7.11-6.41,9.25-14.24,10-8.54,0-16.36-4.27-7.82-13.52s12.81-15.66,14.23-23.49,1.42-12.09,4.27-12.81C955.87,403.27,955.16,406.12,955.16,407.54Z" transform="translate(-170.23 -252.86)"/><g class="cls-35"><path class="cls-7" d="M929.79,440.72s2.14,8.54,11.39,7.11,7.83-9.25,15.66-7.11c7.11,2.13,6.4,5-.71,9.25s-19.22,5.69-23.49,2.85C929.08,450.68,929.79,440.72,929.79,440.72Z" transform="translate(-170.23 -252.86)"/></g><path class="cls-7" d="M932.38,463.05s7.83,5.69,19.93,4.27c11.39-.71,21.35-8.54,21.35-8.54s-9.25,20.64-20.64,20.64C942.35,480.13,932.38,463.05,932.38,463.05Z" transform="translate(-170.23 -252.86)"/><ellipse class="cls-36" cx="1459.34" cy="746.59" rx="44.08" ry="42.78"/><ellipse class="cls-36" cx="161.65" cy="352.54" rx="24.23" ry="23.39"/><line class="cls-37" x1="320.21" y1="832.19" x2="2.81" y2="833.61"/><path class="cls-38" d="M306.83,1139.13l68.32,111,162.26,63.34,284-132.37-77.57-12.81S365.9,1092.16,306.83,1139.13Z" transform="translate(-170.23 -252.86)"/><path class="cls-39" d="M558.05,1244.46l186.45-74.73.71-19.92-188.59,74Z" transform="translate(-170.23 -252.86)"/><path class="cls-40" d="M745.93,1149.81l-197.85-52,5.7,130.23,64.05-26.33,45.54-18.5Z" transform="translate(-170.23 -252.86)"/><path class="cls-29" d="M544.53,1110.67l91.8,24.19-54.09,19.93L541,1145.54Z" transform="translate(-170.23 -252.86)"/><path class="cls-41" d="M550,1038.8,299.47,936l5.86,203.13,252.74,104Z" transform="translate(-170.23 -252.86)"/><ellipse class="cls-42" cx="409.86" cy="1077.76" rx="17.61" ry="27.75" transform="translate(-490.05 -67.91) rotate(-18.44)"/><path class="cls-17" d="M1039,1179.31l-2,.87a11.5,11.5,0,0,1-13-6.44l-.66-1.47c-2.62-5.85-.7-12,4.17-15l2-.88c5.84-2.62,12.68.46,15.64,7l.65,1.46A12.16,12.16,0,0,1,1039,1179.31Z" transform="translate(-170.23 -252.86)"/><polygon class="cls-8" points="848.32 935.62 847.68 935.91 648.35 1025.38 643.19 1013.88 638.03 1002.39 837.01 912.14 837.65 911.85 843.5 924.89 848.32 935.62"/><polygon class="cls-43" points="648.1 1025.64 609.01 1028.91 637.75 1002.57 642.77 1013.75 648.1 1025.64"/><polygon class="cls-40" points="867.3 927.62 847.83 936.37 847.54 935.72 842.87 925.33 837.04 912.35 837.04 912.35 856.52 903.6 856.81 904.25 862.35 916.59 867.01 926.98 867.3 927.62"/><polygon class="cls-44" points="642.6 1014.38 648.29 1025.76 609.15 1029.32 642.6 1014.38"/><path class="cls-44" d="M1039.13,1179c-.71,0-1.42.71-2.13.71v.71l-19.93,8.54h0l-199.27,89-5-11.39,199.27-88.25.71-.71,10-4.27,8.54-4.27,12.1-5.69C1047,1170.45,1044.82,1176.85,1039.13,1179Z" transform="translate(-170.23 -252.86)"/><path class="cls-45" d="M1177.91,1081.5l-336.62,2.84.28-27.47s323.6,27.47,331.21-96.14Z" transform="translate(-170.23 -252.86)"/><path class="cls-46" d="M1024.19,919.23l168.66-2.14,48.39,145.18,294.63-302.45,230.58.71-486.06,508.12-133.09.72Z" transform="translate(-170.23 -252.86)"/><path class="cls-4" d="M1634.73,698.06a3,3,0,0,1-3-2.69c-1.62-17-3.94-34.18-6.88-50.91a3,3,0,0,1,5.86-1c3,16.88,5.31,34.17,6.94,51.38a3,3,0,0,1-2.68,3.24Z" transform="translate(-170.23 -252.86)"/><path class="cls-4" d="M1611.27,576.25a3,3,0,0,1-2.85-2.13,644.57,644.57,0,0,0-74.76-164.28,3,3,0,1,1,5-3.2,650.35,650.35,0,0,1,75.45,165.8,3,3,0,0,1-2.86,3.81Z" transform="translate(-170.23 -252.86)"/><path class="cls-4" d="M369.53,541.86a2.94,2.94,0,0,1-1-.18,3,3,0,0,1-1.8-3.8q2.59-7.27,5.37-14.47a3,3,0,1,1,5.55,2.13q-2.75,7.13-5.32,14.34A3,3,0,0,1,369.53,541.86Z" transform="translate(-170.23 -252.86)"/><path class="cls-4" d="M344.33,887.34a3,3,0,0,1-2.91-2.4,658.72,658.72,0,0,1-5.79-221.74,3,3,0,0,1,5.89.85,652.61,652.61,0,0,0,5.74,219.73,3,3,0,0,1-2.34,3.5A3.93,3.93,0,0,1,344.33,887.34Z" transform="translate(-170.23 -252.86)"/><path class="cls-33" d="M1031.45,326.63a21.6,21.6,0,0,0,7-15.87,22.22,22.22,0,0,0-20-21.84C1037.35,294.75,1032.3,322.58,1031.45,326.63Z" transform="translate(-170.23 -252.86)"/><path class="cls-33" d="M1061.19,337.1c-14.94-21.35-29.89-10-29.89-10s26.19-3.63,28.47,25.55c1.07,13.81-4.41,26.12-10.53,35.3v.07a82,82,0,0,1-6,8l-.07.07a74.39,74.39,0,0,1-8.26,8.47c8.54-3.56,14.38-3.56,18.44-1.92C1060,387.48,1072.58,353.39,1061.19,337.1Z" transform="translate(-170.23 -252.86)"/></svg>